# xmcd
#
# Track frame offsets:
# 150
# 1500
# 5346
# 29711
# 55362
# 82762
# 100342
# 119395
# 135592
# 158724
# 186073
# 215105
# 230257
# 249605
# 266916
#
# Disc length: 3773 seconds
#
#
# Revision: 2
# Processed by: cddbd v1.5.2PL0 Copyright (c) Steve Scherf et al.
# Submitted via: jack 3.1.1
#
DISCID=c20ebb0f
DTITLE=Sheila Burnford - The Incredible Journey Disc 1
DYEAR=1997
DGENRE=Speech
TTITLE0=Introduction
TTITLE1=The Beasts - Walt Whitman
TTITLE2=Chapter 1 (pt.1)
TTITLE3=Chapter 1 (pt.2)
TTITLE4=Chapter 1 (pt.3)
TTITLE5=Chapter 1 (pt.4)
TTITLE6=Chapter 2 (pt.1)
TTITLE7=Chapter 2 (pt.2)
TTITLE8=Chapter 2 (pt.3)
TTITLE9=Chapter 3 (pt.1)
TTITLE10=Chapter 3 (pt.2)
TTITLE11=Chapter 3 (pt.3)
TTITLE12=Chapter 4 (pt.1)
TTITLE13=Chapter 4 (pt.2)
TTITLE14=Chapter 4 (pt.3)
EXTD=The Incredible Journy by Sheila Burnford\nread by Megan Follows Random House, Inc.\n3 CDs
EXTT0=
EXTT1=
EXTT2=
EXTT3=
EXTT4=
EXTT5=
EXTT6=
EXTT7=
EXTT8=
EXTT9=
EXTT10=
EXTT11=
EXTT12=
EXTT13=
EXTT14=
PLAYORDER=
